<?xml version="1.0" encoding="UTF-8" standalone="no"?>
<svg
   width="512"
   height="512"
   viewBox="0 0 512 512"
   version="1.1"
   id="svg2"
   sodipodi:docname="icon.svg"
   inkscape:version="1.4.2 (ebf0e940d0, 2025-05-08)"
   xmlns:inkscape="http://www.inkscape.org/namespaces/inkscape"
   xmlns:sodipodi="http://sodipodi.sourceforge.net/DTD/sodipodi-0.dtd"
   xmlns="http://www.w3.org/2000/svg"
   xmlns:svg="http://www.w3.org/2000/svg">
  <defs
     id="defs2" />
  <sodipodi:namedview
     id="namedview2"
     pagecolor="#ffffff"
     bordercolor="#000000"
     borderopacity="0.25"
     inkscape:showpageshadow="2"
     inkscape:pageopacity="0.0"
     inkscape:pagecheckerboard="0"
     inkscape:deskcolor="#d1d1d1"
     inkscape:zoom="0.10192871"
     inkscape:cx="-1270.4958"
     inkscape:cy="-279.60719"
     inkscape:window-width="1920"
     inkscape:window-height="1010"
     inkscape:window-x="0"
     inkscape:window-y="0"
     inkscape:window-maximized="1"
     inkscape:current-layer="svg2" />
  <rect
     width="512"
     height="512"
     rx="100"
     fill="#2d5a2d"
     id="rect1" />
  <g
     id="g11"
     transform="translate(-604.99609,-465.47558)">
    <path
       d="m 967.02148,586.19922 v 126.73633 142.53906 1.27734 h 67.63672 V 586.19922 Z"
       style="fill:white;stroke-width:9.29503;stroke-linecap:round;stroke-linejoin:round;paint-order:markers stroke fill"
       id="path9" />
    <path
       d="m 898.45508,586.42578 v 141.85938 l 68.5664,127.18945 V 712.93555 l -68.2832,-126.66211 z"
       style="fill:white;stroke-width:9.29503;stroke-linecap:round;stroke-linejoin:round;paint-order:markers stroke fill"
       id="path11" />
    <path
       d="m 830.81641,586.40234 -0.24024,-0.1289 -37.45898,69.48633 37.69922,69.93359 z"
       style="fill:white;stroke-width:9.29503;stroke-linecap:round;stroke-linejoin:round;paint-order:markers stroke fill"
       id="path10" />
    <path
       d="m 830.81641,586.19922 v 0.20312 139.29102 l 0.7207,1.33398 -0.7207,1.33594 v 124.75586 3.63281 h 67.63867 V 728.28516 586.42578 586.19922 Z"
       style="fill:white;stroke-width:9.29503;stroke-linecap:round;stroke-linejoin:round;paint-order:markers stroke fill"
       id="path8" />
    <path
       d="m 687.33398,586.19922 v 270.55273 h 67.63868 v -3.87109 -125.33984 l -0.27735,-0.51368 0.27735,-0.51172 v 1.0254 l 38.14453,70.7539 37.69922,-69.93164 v -2.66992 l -37.69922,-69.93359 -37.46094,-69.48633 -0.68359,0.36914 v -0.44336 z"
       style="fill:white;stroke-width:9.29503;stroke-linecap:round;stroke-linejoin:round;paint-order:markers stroke fill"
       id="path7" />
  </g>
</svg>
